<mxfile host="app.diagrams.net" modified="2023-12-21T08:04:43.052Z" agent="Mozilla/5.0 (Macintosh; Intel Mac OS X 10_15_7) AppleWebKit/605.1.15 (KHTML, like Gecko) Version/17.1 Safari/605.1.15" version="22.1.11" etag="ynaK0W0oLnKKe3Xwl6LW" type="github">
  <diagram name="Page-1" id="9zcz33UXx225ZlQHVHOC">
    <mxGraphModel>
      <root>
        <mxCell id="0" />
        <mxCell id="1" parent="0" />
      </root>
    </mxGraphModel>
  </diagram>
</mxfile>
